<svg width="25" height="24" viewBox="0 0 25 24" fill="none" xmlns="http://www.w3.org/2000/svg">
<path d="M16.66 21V19C16.66 17.9391 16.2386 16.9217 15.4885 16.1716C14.7383 15.4214 13.7209 15 12.66 15H6.66003C5.59917 15 4.58175 15.4214 3.83161 16.1716C3.08146 16.9217 2.66003 17.9391 2.66003 19V21" stroke="#425B76" stroke-width="2" stroke-linecap="round" stroke-linejoin="round"/>
<path d="M9.66003 11C11.8692 11 13.66 9.20914 13.66 7C13.66 4.79086 11.8692 3 9.66003 3C7.4509 3 5.66003 4.79086 5.66003 7C5.66003 9.20914 7.4509 11 9.66003 11Z" stroke="#425B76" stroke-width="2" stroke-linecap="round" stroke-linejoin="round"/>
<path d="M16.66 11L18.66 13L22.66 9" stroke="#425B76" stroke-width="2" stroke-linecap="round" stroke-linejoin="round"/>
</svg>
