<svg width="25" height="24" viewBox="0 0 25 24" fill="none" xmlns="http://www.w3.org/2000/svg">
<path d="M15.807 12.8899L17.322 21.4159C17.339 21.5163 17.3249 21.6195 17.2816 21.7116C17.2384 21.8038 17.168 21.8806 17.0799 21.9317C16.9919 21.9828 16.8903 22.0058 16.7888 21.9976C16.6873 21.9894 16.5908 21.9504 16.512 21.8859L12.932 19.1989C12.7592 19.0698 12.5492 19 12.3335 19C12.1178 19 11.9078 19.0698 11.735 19.1989L8.14901 21.8849C8.07033 21.9493 7.97387 21.9882 7.87251 21.9964C7.77114 22.0046 7.66969 21.9817 7.58168 21.9308C7.49367 21.8798 7.42329 21.8032 7.37993 21.7112C7.33657 21.6192 7.3223 21.5162 7.33901 21.4159L8.85301 12.8899" stroke="#425B76" stroke-width="2" stroke-linecap="round" stroke-linejoin="round"/>
<path d="M12.33 14C15.6437 14 18.33 11.3137 18.33 8C18.33 4.68629 15.6437 2 12.33 2C9.01631 2 6.33002 4.68629 6.33002 8C6.33002 11.3137 9.01631 14 12.33 14Z" stroke="#425B76" stroke-width="2" stroke-linecap="round" stroke-linejoin="round"/>
</svg>
